<?xml version="1.0" ?><!DOCTYPE svg  PUBLIC '-//W3C//DTD SVG 1.1//EN'  'http://www.w3.org/Graphics/SVG/1.1/DTD/svg11.dtd'><svg height="1.70667in" style="shape-rendering:geometricPrecision; text-rendering:geometricPrecision; image-rendering:optimizeQuality; fill-rule:evenodd; clip-rule:evenodd" version="1.1" viewBox="0 0 17445 17445" width="1.70667in" xml:space="preserve" xmlns="http://www.w3.org/2000/svg" xmlns:xlink="http://www.w3.org/1999/xlink"><defs><style type="text/css">
   <![CDATA[
    .fil0 {fill:none}
    .fil1 {fill:black;fill-rule:nonzero}
   ]]>
  </style></defs><g id="Layer_x0020_1"><rect class="fil0" height="17445" width="17445"/><path class="fil1" d="M12893 7610l-4311 0c-454,0 -746,-508 -533,-910 226,-428 424,-901 612,-1380 216,-552 -178,-1012 -625,-1012 -227,0 -467,114 -648,395 -537,834 -831,1891 -1438,2302 -376,254 -1498,788 -1919,996 -106,52 -224,159 -224,277l0 3279c0,156 166,287 320,308l1327 173c46,6 103,22 142,48 1135,744 1947,1051 2702,1051 161,0 324,-14 484,-41 955,-160 1106,-836 1123,-1150 5,-96 55,-187 136,-239 509,-331 476,-827 404,-1108 -32,-124 12,-255 115,-330 385,-281 420,-635 379,-915 -28,-188 116,-325 306,-325l1648 0c994,0 994,-1419 0,-1419z"/></g></svg>